<svg width="48" height="48" viewBox="0 0 48 48" fill="none" xmlns="http://www.w3.org/2000/svg">
<path d="M31.458 7.76803C34.326 4.88803 38.522 4.82803 40.844 7.16003C43.172 9.49603 43.11 13.72 40.238 16.6L35.392 21.466C35.1192 21.7493 34.9685 22.1284 34.9724 22.5217C34.9764 22.9151 35.1347 23.2911 35.4132 23.5688C35.6917 23.8465 36.0682 24.0037 36.4615 24.0066C36.8548 24.0094 37.2335 23.8577 37.516 23.584L42.364 18.718C46.186 14.88 46.666 8.75403 42.97 5.04203C39.27 1.32803 33.156 1.81203 29.33 5.65003L19.638 15.384C15.816 19.222 15.336 25.348 19.032 29.058C19.1701 29.2016 19.3353 29.3162 19.5181 29.3952C19.7009 29.4742 19.8976 29.5161 20.0968 29.5182C20.2959 29.5204 20.4935 29.4829 20.678 29.4079C20.8625 29.333 21.0302 29.222 21.1714 29.0815C21.3125 28.941 21.4243 28.7738 21.5002 28.5897C21.576 28.4055 21.6145 28.2081 21.6132 28.009C21.612 27.8098 21.5711 27.6129 21.4929 27.4297C21.4148 27.2465 21.3009 27.0807 21.158 26.942C18.83 24.606 18.894 20.382 21.764 17.502L31.458 7.76803Z" fill="#571CB4"/>
<path d="M28.9699 18.94C28.6888 18.658 28.3072 18.4993 27.9091 18.4988C27.5109 18.4982 27.1289 18.6558 26.8469 18.937C26.565 19.2181 26.4063 19.5997 26.4058 19.9978C26.4052 20.396 26.5628 20.778 26.8439 21.06C29.1719 23.396 29.1099 27.618 26.2379 30.5L16.5439 40.232C13.6739 43.112 9.47794 43.172 7.15594 40.84C4.82794 38.504 4.89194 34.28 7.76194 31.4L12.6099 26.534C12.749 26.3944 12.8592 26.2288 12.9343 26.0466C13.0093 25.8644 13.0478 25.6692 13.0474 25.4721C13.0471 25.2751 13.0079 25.0801 12.9321 24.8981C12.8564 24.7162 12.7455 24.551 12.6059 24.412C12.4663 24.2729 12.3007 24.1627 12.1185 24.0876C11.9363 24.0126 11.7412 23.9741 11.5441 23.9745C11.3471 23.9749 11.152 24.014 10.9701 24.0898C10.7882 24.1655 10.623 24.2764 10.4839 24.416L5.63594 29.282C1.81394 33.122 1.33394 39.246 5.02994 42.958C8.72994 46.674 14.8439 46.188 18.6699 42.35L28.3639 32.616C32.1859 28.78 32.6659 22.65 28.9699 18.94Z" fill="#571CB4"/>
</svg>
