<svg width="18" height="18" viewBox="0 0 18 18" fill="none" xmlns="http://www.w3.org/2000/svg">
<path d="M15.75 13.3125C15.75 13.959 15.4932 14.579 15.0361 15.0361C14.579 15.4932 13.959 15.75 13.3125 15.75H4.6875C4.04103 15.75 3.42105 15.4932 2.96393 15.0361C2.50681 14.579 2.25 13.959 2.25 13.3125V4.6875C2.25 4.04103 2.50681 3.42105 2.96393 2.96393C3.42105 2.50681 4.04103 2.25 4.6875 2.25H13.3125C13.959 2.25 14.579 2.50681 15.0361 2.96393C15.4932 3.42105 15.75 4.04103 15.75 4.6875V13.3125ZM14.625 13.3125V4.6875C14.625 4.3394 14.4867 4.00556 14.2406 3.75942C13.9944 3.51328 13.6606 3.375 13.3125 3.375H4.6875C4.3394 3.375 4.00556 3.51328 3.75942 3.75942C3.51328 4.00556 3.375 4.3394 3.375 4.6875V13.3125C3.375 14.037 3.963 14.625 4.6875 14.625H13.3125C13.6606 14.625 13.9944 14.4867 14.2406 14.2406C14.4867 13.9944 14.625 13.6606 14.625 13.3125ZM12.75 5.8125C12.75 5.94843 12.7008 6.07976 12.6114 6.1822C12.5221 6.28464 12.3987 6.35126 12.264 6.36975L12.1875 6.375H5.8125C5.66998 6.37496 5.53279 6.32082 5.42866 6.22352C5.32452 6.12622 5.26119 5.99303 5.25148 5.85084C5.24177 5.70865 5.28639 5.56808 5.37632 5.45753C5.46626 5.34697 5.59481 5.27468 5.736 5.25525L5.8125 5.25H12.1875C12.3367 5.25 12.4798 5.30926 12.5852 5.41475C12.6907 5.52024 12.75 5.66332 12.75 5.8125ZM12.75 12.1875C12.75 12.3234 12.7008 12.4548 12.6114 12.5572C12.5221 12.6596 12.3987 12.7263 12.264 12.7448L12.1875 12.75H5.8125C5.66998 12.75 5.53279 12.6958 5.42866 12.5985C5.32452 12.5012 5.26119 12.368 5.25148 12.2258C5.24177 12.0837 5.28639 11.9431 5.37632 11.8325C5.46626 11.722 5.59481 11.6497 5.736 11.6302L5.8125 11.625H12.1875C12.3367 11.625 12.4798 11.6843 12.5852 11.7898C12.6907 11.8952 12.75 12.0383 12.75 12.1875ZM12.75 9C12.75 9.13593 12.7008 9.26726 12.6114 9.3697C12.5221 9.47214 12.3987 9.53876 12.264 9.55725L12.1875 9.5625H5.8125C5.66998 9.56246 5.53279 9.50832 5.42866 9.41102C5.32452 9.31372 5.26119 9.18053 5.25148 9.03834C5.24177 8.89615 5.28639 8.75558 5.37632 8.64503C5.46626 8.53447 5.59481 8.46218 5.736 8.44275L5.8125 8.4375H12.1875C12.3367 8.4375 12.4798 8.49676 12.5852 8.60225C12.6907 8.70774 12.75 8.85082 12.75 9Z" fill="white"/>
</svg>
