<svg width="14" height="17" viewBox="0 0 14 17" fill="none" xmlns="http://www.w3.org/2000/svg">
<path d="M7.46667 15.85C7.33067 15.9477 7.16744 16.0002 7 16.0002C6.83256 16.0002 6.66934 15.9477 6.53333 15.85C2.50917 12.9817 -1.76167 7.08167 2.55583 2.81833C3.74112 1.65237 5.33736 0.99927 7 1C8.66667 1 10.2658 1.65417 11.4442 2.8175C15.7617 7.08083 11.4908 12.98 7.46667 15.85Z" stroke="#571CB4" stroke-linecap="round" stroke-linejoin="round"/>
<path d="M6.99998 8.50008C7.44201 8.50008 7.86593 8.32449 8.17849 8.01193C8.49105 7.69937 8.66665 7.27544 8.66665 6.83341C8.66665 6.39139 8.49105 5.96746 8.17849 5.6549C7.86593 5.34234 7.44201 5.16675 6.99998 5.16675C6.55795 5.16675 6.13403 5.34234 5.82147 5.6549C5.50891 5.96746 5.33331 6.39139 5.33331 6.83341C5.33331 7.27544 5.50891 7.69937 5.82147 8.01193C6.13403 8.32449 6.55795 8.50008 6.99998 8.50008Z" stroke="#571CB4" stroke-linecap="round" stroke-linejoin="round"/>
</svg>
