<svg width="191" height="20" viewBox="0 0 191 20" fill="none" xmlns="http://www.w3.org/2000/svg">
<path d="M0.324 20V0.399999H14.576V4.964H5.644V15.436H14.996V20H0.324ZM2.956 12.216V7.904H13.456V12.216H2.956ZM23.597 20L15.785 0.399999H21.385L24.773 9.528C24.997 10.1067 25.1837 10.6107 25.333 11.04C25.4824 11.4507 25.613 11.8427 25.725 12.216C25.837 12.5707 25.949 12.9533 26.061 13.364C26.173 13.756 26.285 14.232 26.397 14.792H25.473C25.641 14.064 25.7997 13.448 25.949 12.944C26.0984 12.44 26.257 11.936 26.425 11.432C26.6117 10.928 26.845 10.2933 27.125 9.528L30.457 0.399999H35.917L28.049 20H23.597ZM37.5673 20V0.399999H51.8193V4.964H42.8873V15.436H52.2393V20H37.5673ZM40.1993 12.216V7.904H50.6993V12.216H40.1993ZM55.4643 20V0.399999H60.4203L69.9403 13.448L68.7923 13.168C68.699 12.4773 68.615 11.852 68.5403 11.292C68.4843 10.732 68.4283 10.2 68.3723 9.696C68.335 9.192 68.2976 8.688 68.2603 8.184C68.2416 7.68 68.2323 7.12933 68.2323 6.532C68.2323 5.93467 68.2323 5.26267 68.2323 4.516V0.399999H73.5803V20H68.5683L58.3203 6L60.2523 6.476C60.3456 7.24133 60.4203 7.904 60.4763 8.464C60.551 9.024 60.607 9.528 60.6443 9.976C60.6816 10.424 60.7096 10.8533 60.7283 11.264C60.7656 11.6747 60.7843 12.1133 60.7843 12.58C60.803 13.0467 60.8123 13.5787 60.8123 14.176V20H55.4643ZM82.1617 20V5.188H76.2257V0.399999H93.8377V5.188H87.7057V20H82.1617ZM109.862 20V5.188H103.926V0.399999H121.538V5.188H115.406V20H109.862ZM123.929 20V15.464H127.345V4.936H123.929V0.399999H136.277V4.936H132.889V15.464H136.277V20H123.929ZM144.617 20V5.188H138.681V0.399999H156.293V5.188H150.161V20H144.617ZM158.936 20V0.399999H164.48V15.212H173.02V20H158.936ZM175.548 20V0.399999H189.8V4.964H180.868V15.436H190.22V20H175.548ZM178.18 12.216V7.904H188.68V12.216H178.18Z" fill="#E65183"/>
</svg>
