<svg width="26" height="19" viewBox="0 0 26 19" fill="none" xmlns="http://www.w3.org/2000/svg">
<path d="M6.456 18.668C5.34667 18.668 4.34133 18.3733 3.44 17.784C2.57333 17.1947 1.88 16.38 1.36 15.34C0.84 14.2653 0.58 13.0347 0.58 11.648C0.58 10.4 0.805333 9.18667 1.256 8.008C1.70667 6.79466 2.348 5.668 3.18 4.628C4.04667 3.588 5.052 2.68666 6.196 1.924C7.34 1.12666 8.588 0.554664 9.94 0.207997L12.644 3.536C11.1187 4.12533 9.90533 4.92267 9.004 5.928C8.10267 6.93333 7.652 7.78266 7.652 8.476C7.652 8.788 7.72133 9.13467 7.86 9.516C8.03333 9.86266 8.44933 10.2267 9.108 10.608C9.97467 11.1627 10.5813 11.7693 10.928 12.428C11.2747 13.052 11.448 13.78 11.448 14.612C11.448 15.86 10.98 16.848 10.044 17.576C9.108 18.304 7.912 18.668 6.456 18.668ZM19.3 18.668C18.1907 18.668 17.1853 18.3733 16.284 17.784C15.4173 17.1947 14.724 16.38 14.204 15.34C13.684 14.2653 13.424 13.0347 13.424 11.648C13.424 10.4 13.6493 9.18667 14.1 8.008C14.5507 6.79466 15.192 5.668 16.024 4.628C16.8907 3.588 17.896 2.68666 19.04 1.924C20.184 1.12666 21.432 0.554664 22.784 0.207997L25.488 3.536C23.9627 4.12533 22.7493 4.92267 21.848 5.928C20.9467 6.93333 20.496 7.78266 20.496 8.476C20.496 8.788 20.5653 9.13467 20.704 9.516C20.8773 9.86266 21.2933 10.2267 21.952 10.608C22.8187 11.1627 23.4253 11.7693 23.772 12.428C24.1187 13.052 24.292 13.78 24.292 14.612C24.292 15.86 23.824 16.848 22.888 17.576C21.952 18.304 20.756 18.668 19.3 18.668Z" fill="#E65183"/>
</svg>
